<svg width="364" height="213" viewBox="0 0 364 213" fill="none" xmlns="http://www.w3.org/2000/svg">
<path d="M0 12C0 5.37258 5.37258 0 12 0H352C358.627 0 364 5.37258 364 12V213H0V12Z" fill="white"/>
<path d="M28 83C28 78.5817 31.5817 75 36 75H328C332.418 75 336 78.5817 336 83V213H28V83Z" fill="#D9D9D9"/>
<rect x="39.2951" y="23.228" width="40" height="40" rx="4" transform="rotate(-15.8621 39.2951 23.228)" fill="#D9D9D9"/>
<rect x="123.373" y="13.4243" width="40" height="40" rx="4" transform="rotate(11.4626 123.373 13.4243)" fill="#D9D9D9"/>
<rect x="190.172" y="21.7612" width="40" height="40" rx="4" transform="rotate(-12.4 190.172 21.7612)" fill="#D9D9D9"/>
<rect x="275.645" y="12.0674" width="40" height="40" rx="4" transform="rotate(16.8245 275.645 12.0674)" fill="#D9D9D9"/>
<path d="M28 94.5H336" stroke="#B1B1B1"/>
<path d="M68.5 57C68.5 57 65.5 62.5 67 64.5C68.5 66.5 69.7501 65.7525 72.5 66.5C76.9083 67.0097 77.6373 65.9671 77.5 63C76.5294 59.9832 73.5 60.5 73 61C72.5 61.5 68.6893 63.3586 70 68.5C71.2404 71.6049 72.4733 72.7663 75.5 74C75.5 74 76 74.5 76.5 75.5" stroke="black"/>
<path d="M134.015 57C134.015 57 137.015 62.5 135.515 64.5C134.015 66.5 132.765 65.7525 130.015 66.5C125.607 67.0097 124.878 65.9671 125.015 63C125.986 59.9832 129.015 60.5 129.515 61C130.015 61.5 133.826 63.3586 132.515 68.5C131.275 71.6049 130.042 72.7663 127.015 74C127.015 74 126.515 74.5 126.015 75.5" stroke="black"/>
<path d="M220.931 56C220.931 56 217.914 61.6486 219.422 63.7027C220.931 65.7568 222.189 64.9891 224.955 65.7568C229.39 66.2802 230.123 65.2095 229.985 62.1622C229.008 59.0639 225.961 59.5946 225.458 60.1081C224.955 60.6216 221.122 62.5305 222.44 67.8108C223.688 70.9996 224.928 72.1924 227.973 73.4595C227.973 73.4595 228.476 73.973 228.979 75" stroke="black"/>
<path d="M283.069 56C283.069 56 286.086 61.6486 284.578 63.7027C283.069 65.7568 281.811 64.9891 279.045 65.7568C274.61 66.2802 273.877 65.2095 274.015 62.1622C274.992 59.0639 278.039 59.5946 278.542 60.1081C279.045 60.6216 282.878 62.5305 281.56 67.8108C280.312 70.9996 279.072 72.1924 276.027 73.4595C276.027 73.4595 275.524 73.973 275.021 75" stroke="black"/>
</svg>
